<svg xmlns="http://www.w3.org/2000/svg" width="320" height="380" viewBox="0 0 320 380"><title>시공 도구 일러스트</title><desc>페인트 롤러, 수평자, 페인트 통을 그린 세로 선화</desc><rect x="0" y="0" width="320" height="380" fill="#f7f3ec"/><rect x="64" y="44" width="40" height="112" rx="8" fill="#e2a65a" fill-opacity="0.45"/><rect x="60" y="300" width="80" height="10" fill="#e2a65a" fill-opacity="0.45"/><g fill="none" stroke="#22333f" stroke-width="3" stroke-linecap="round" stroke-linejoin="round"><rect x="64" y="44" width="40" height="112" rx="8"/><path d="M 84 156 V 180 H 120 V 230"/><rect x="108" y="230" width="24" height="48" rx="7"/><rect x="196" y="44" width="40" height="236" rx="4"/><path d="M 196 68 H 212 M 196 92 H 220 M 196 116 H 212 M 196 140 H 220 M 196 164 H 212 M 196 188 H 220 M 196 212 H 212 M 196 236 H 220 M 196 260 H 212"/><rect x="56" y="296" width="88" height="56" rx="4"/><path d="M 52 296 H 148"/><path d="M 64 296 Q 100 268 136 296"/><path d="M 24 352 H 296"/></g></svg>
